<?xml version="1.0" encoding="utf-8"?>
<!-- Generator: Adobe Illustrator 18.0.0, SVG Export Plug-In . SVG Version: 6.00 Build 0)  -->
<!DOCTYPE svg PUBLIC "-//W3C//DTD SVG 1.1//EN" "http://www.w3.org/Graphics/SVG/1.1/DTD/svg11.dtd">
<svg version="1.1" id="Calque_1" xmlns="http://www.w3.org/2000/svg" xmlns:xlink="http://www.w3.org/1999/xlink" x="0px" y="0px"
	 viewBox="0 0 250 250" enable-background="new 0 0 250 250" xml:space="preserve">
<path fill="#808080" stroke="#000000" stroke-linecap="round" stroke-linejoin="round" d="M61.5,66.9c-1,1-2,2-3,3
	c-0.7,0.7-1.5,1.5-2.2,2.2c0,0-0.1,0-0.1,0C56.1,69.1,58.6,66.7,61.5,66.9C61.5,66.8,61.5,66.9,61.5,66.9z"/>
<linearGradient id="SVGID_1_" gradientUnits="userSpaceOnUse" x1="46.8223" y1="123.7228" x2="205.084" y2="123.7228">
	<stop  offset="0" style="stop-color:#33AA22"/>
	<stop  offset="1" style="stop-color:#33AA22"/>
</linearGradient>
<path fill="url(#SVGID_1_)" d="M46.8,84.3c5.8-8.9,13-16.8,21.8-22.9c8.9-6.2,18.7-9.9,29.2-11.9c20.8-3.9,42.9-0.8,62,8
	c0,0,0,0,0.1,0c0,0,0.1,0,0.1,0c12,5.5,22.2,14.2,30.1,25.1c7.9,11,13.6,24.3,14.8,39.1c0.1,0.7,0.1,1.4,0.1,2
	c0.8,13.4-2,27.7-6.6,40.2c-4.8,13.1-11.9,24.4-20.5,35.3c-14,0.1-28,0.3-42.1,0.2c-11.7,0-30.3-0.1-42-1.3c-3.5-0.4-7-0.8-10.4-1.7
	c-3.5-0.9-6.6-2.3-9.5-4.4c-5.9-4.3-9.6-10.3-10.7-17.5c-1.1-7.1,0.5-14.1,3-20.6c2.5-6.6,5.7-12.8,8.1-19.4
	c1.3-3.6,2.4-7.1,2.9-10.9c0.9-6.1,0.1-11.9-3.4-17.1c-1.7-2.5-3.8-4.6-6.1-6.5c-2.3-1.9-4.6-3.8-6.9-5.6c-1.9-1.5-3.7-2.9-5.6-4.3
	C52.4,88.2,49.6,86.2,46.8,84.3z"/>
<path stroke="#000000" stroke-width="0.112" stroke-linecap="round" stroke-linejoin="round" d="M45.6,87.2
	c4.5,3.1,8.9,6.3,13.2,9.7c1.7,1.4,3.4,2.7,5.1,4.1c1.6,1.3,3.2,2.5,4.6,3.9c8.2,7.9,7.6,17.2,4.5,26.9c-1.5,4.6-3.4,9-5.4,13.5
	c-1.9,4.4-3.9,8.8-5.3,13.5c-2.7,9.2-2.8,19.4,2.7,28c2.6,4,6.3,7.5,10.5,9.7c4.4,2.4,9,3.3,13.9,4c8.4,1.1,20.5,1.4,28.9,1.6
	c19.3,0.3,38.7,0,58-0.3c1.1,0,2-1.1,2.5-1.9c0.6-1,0.9-1.9,0.9-3.1c-11.9,0-23.7,0-35.6-0.1c-6.7,0-13.5-0.1-20.2-0.2
	c-5.1-0.1-10.3-0.2-15.4-0.4c-3.8-0.1-7.5-0.3-11.3-0.6c-2.9-0.2-5.8-0.5-8.7-1c-1.2-0.2-2.3-0.4-3.5-0.7c-0.9-0.2-1.9-0.5-2.8-0.7
	c-1.6-0.5-3.1-1.1-4.5-1.9c-0.7-0.4-1.4-0.9-2.1-1.4c-0.7-0.5-1.4-1-2-1.6c-1.4-1.2-2.6-2.6-3.7-4c-1-1.5-1.9-3-2.5-4.7
	c-0.7-1.8-1.1-3.6-1.4-5.5c-0.2-1.9-0.3-3.9-0.1-5.8c0.1-1.6,0.4-3.2,0.7-4.7c0.4-1.7,0.9-3.4,1.4-5.1c0.6-1.7,1.2-3.3,1.9-5
	c0.4-0.9,0.8-1.8,1.2-2.8c1.1-2.5,2.2-4.9,3.2-7.4c0.7-1.5,1.3-3.1,1.9-4.6c1.1-2.9,2.1-5.8,2.9-8.8c0.7-2.9,1.2-5.9,1.3-8.9
	c0.1-2.6-0.1-5.3-0.7-7.9c-0.1-0.6-0.3-1.2-0.5-1.8c-0.2-0.6-0.4-1.2-0.6-1.7c-0.4-1.1-0.9-2.2-1.5-3.2c-0.6-1.1-1.3-2.1-2.1-3.1
	c-0.8-1-1.6-1.9-2.5-2.8c-0.2-0.2-0.5-0.4-0.7-0.7c-0.2-0.2-0.5-0.4-0.7-0.6c-0.3-0.3-0.6-0.5-0.9-0.8c-0.2-0.1-0.3-0.3-0.5-0.4
	c-3.1-2.6-6.2-5.1-9.3-7.6c-2-1.6-4-3.1-6.1-4.6c-2-1.4-3.9-2.8-5.9-4.2c-1.1,0.4-1.9,1-2.7,1.9c-0.6,0.7-1.3,2-0.9,3
	C45.2,86.8,45.3,87,45.6,87.2z"/>
<path stroke="#000000" stroke-width="0.112" stroke-linecap="round" stroke-linejoin="round" d="M156.8,60.7
	c-0.8-0.4-1.7-0.7-2.5-1.1c-0.9-0.4-1.8-0.7-2.7-1.1c-1.8-0.7-3.7-1.3-5.6-1.9c-3.7-1.2-7.5-2.1-11.4-2.8c-0.1,0-0.2,0-0.3-0.1
	c-0.1,0-0.2-0.1-0.3-0.1c-0.1,0-0.1-0.1-0.2-0.1c0,0,0,0-0.1-0.1c0,0,0-0.1,0-0.1c0,0,0-0.1,0.1-0.1c0.1,0,0.2-0.1,0.2-0.1
	c0.2,0,0.5,0,0.7,0c1,0.2,1.9,0.4,2.9,0.6c1,0.2,2,0.4,2.9,0.7c1.9,0.5,3.8,1,5.6,1.6c1.9,0.6,3.7,1.2,5.6,1.9
	c1.8,0.7,3.6,1.4,5.4,2.2c0.1,0.1,0.2,0.1,0.3,0.2c0.1,0.1,0.2,0.1,0.3,0.2c0.1,0.1,0.1,0.1,0.2,0.2c0,0,0,0.1,0,0.1c0,0,0,0,0,0.1
	c0,0,0,0-0.1,0c-0.1,0-0.2,0-0.2,0C157.3,60.8,157,60.8,156.8,60.7z"/>
<path stroke="#000000" stroke-width="0.112" stroke-linecap="round" stroke-linejoin="round" d="M98.7,53.8c-4.2,0.8-8.3,2-12.3,3.5
	c-2,0.8-4,1.6-5.9,2.6c-1.1,0.5-2.2,1.1-3.2,1.7c-0.2,0.1-1.1,0.7-1.3,0.5c-0.1-0.1,0.1-0.3,0.1-0.4c0.2-0.2,0.4-0.4,0.6-0.5
	c1.1-0.7,4.5-2.4,5.7-2.9c2-0.9,3.9-1.6,6-2.3c2-0.7,4.1-1.3,6.2-1.8c1-0.3,2.1-0.5,3.1-0.7c0.5-0.1,1-0.3,1.6-0.2
	c0.4,0,0.6,0.2,0.2,0.4C99.2,53.7,98.9,53.8,98.7,53.8z"/>
<path stroke="#000000" stroke-width="0.112" stroke-linecap="round" stroke-linejoin="round" d="M200.3,138.4c0-0.3,0.1-0.5,0.2-0.8
	c0.1-0.1,0.2-0.3,0.3-0.1c0.3,0.3,0.1,1.2,0.1,1.5c-0.1,1.2-0.3,2.4-0.5,3.6c-0.3,2.1-0.7,4.2-1.2,6.3c-0.9,4.2-2.1,8.3-3.6,12.3
	c-0.1,0.2-0.2,0.5-0.4,0.7c-0.1,0.1-0.2,0.3-0.4,0.2c-0.3-0.2,0.1-1.2,0.2-1.4c0.4-1.2,0.8-2.3,1.2-3.5c0.6-2,1.2-4.1,1.7-6.2
	C199.1,146.8,199.8,142.7,200.3,138.4z"/>
<path stroke="#000000" stroke-width="0.112" stroke-linecap="round" stroke-linejoin="round" d="M185.5,82.3c2.7,3.4,5,6.9,7.1,10.7
	c1,1.9,2,3.8,2.8,5.7c0.5,1.2,1,2.3,1.4,3.5c0.1,0.3,0.5,1.1,0.3,1.5c-0.1,0.2-0.2,0-0.3,0c-0.2-0.2-0.3-0.4-0.4-0.6
	c-0.4-1-0.8-2-1.2-3c-0.4-1-0.8-1.9-1.3-2.9c-0.9-1.9-1.9-3.8-3-5.7c-1.1-1.8-2.2-3.6-3.5-5.4c-0.6-0.9-1.2-1.7-1.8-2.5
	c-0.3-0.4-0.7-0.8-0.9-1.3c-0.1-0.1-0.1-0.2-0.1-0.4c0-0.2,0.1-0.2,0.3-0.1C185.1,81.8,185.3,82,185.5,82.3z"/>
<path fill="#808080" stroke="#000000" stroke-linecap="round" stroke-linejoin="round" d="M81.4,82.8c2.1,0.1,2.8,2,2.1,3.8
	c-0.6,1.5-2.3,2.8-4.1,2.7c-0.2,0-0.4,0-0.6-0.1c-1.9-0.5-2.2-2.4-1.4-4C78.2,83.9,79.8,82.7,81.4,82.8z"/>
<path fill="#808080" stroke="#000000" stroke-linecap="round" stroke-linejoin="round" d="M103.4,164.8c-0.3,1.9-2.1,3.1-4,2.8
	c-1.8-0.2-3.3-1.8-3.3-3.7c0-2,1.7-3.6,3.7-3.5c2,0.1,3.6,1.8,3.6,3.7C103.4,164.4,103.4,164.6,103.4,164.8z"/>
<path fill="#808080" stroke="#000000" stroke-linecap="round" stroke-linejoin="round" d="M86.1,176c-0.3,1.9-2.1,3-4,2.7
	c-1.8-0.3-3.2-1.8-3.3-3.7c0-2,1.7-3.5,3.7-3.4c1.9,0.1,3.6,1.8,3.6,3.7C86.2,175.6,86.2,175.8,86.1,176z"/>
<path opacity="0.2" fill="#1F6B15" d="M-149.2-77.4L-149.2-77.4L-149.2-77.4c-47.6,0-86.2,38.6-86.2,86.2
	c0,25.7,11.3,48.8,29.2,64.6C-191,86.8-171,95-149.2,95l0,0h0c21.8,0,41.8-8.1,57-21.5C-74.3,57.6-63,34.5-63,8.8
	C-63-38.8-101.6-77.4-149.2-77.4z"/>
<g>
	<polygon fill="#33AA22" points="-92.3,-20.1 -107.1,-34.9 -149.2,7.2 -149.2,36.8 	"/>
	<polygon fill="#33AA22" points="-191.3,1.2 -206.2,16.1 -167.3,54.9 -149.2,36.8 -149.2,7.2 -167.3,25.3 	"/>
	<path fill="#2C7C19" d="M-149.2,36.8v54.9h0c21.8,0,41.8-8.1,57-21.5v-90.4L-149.2,36.8z"/>
	<path fill="#2D911C" d="M-167.3,54.9l-38.9-38.9v54.2c15.2,13.4,35.1,21.5,57,21.5V36.8L-167.3,54.9z"/>
	<path fill="#2D911C" d="M-149.2-80.5L-149.2-80.5l0,87.7l42.1-42.1l14.8,14.8v90.4C-74.3,54.5-63,31.4-63,5.6
		C-63-42-101.6-80.5-149.2-80.5z"/>
	<path fill="#33AA22" d="M-191.3,1.2l24,24l18.1-18.1v-87.7c-47.6,0-86.2,38.6-86.2,86.2c0,25.7,11.3,48.8,29.2,64.6V16.1
		L-191.3,1.2z"/>
</g>
<defs>
	<filter id="Adobe_OpacityMaskFilter" filterUnits="userSpaceOnUse" x="-235.4" y="-80.5" width="172.3" height="172.3">
		<feFlood  style="flood-color:white;flood-opacity:1" result="back"/>
		<feBlend  in="SourceGraphic" in2="back" mode="normal"/>
	</filter>
</defs>
<mask maskUnits="userSpaceOnUse" x="-235.4" y="-80.5" width="172.3" height="172.3" id="SVGID_2_">
	<g filter="url(#Adobe_OpacityMaskFilter)">
		<defs>
			<filter id="Adobe_OpacityMaskFilter_1_" filterUnits="userSpaceOnUse" x="-235.4" y="-80.5" width="172.3" height="172.3">
				<feFlood  style="flood-color:white;flood-opacity:1" result="back"/>
				<feBlend  in="SourceGraphic" in2="back" mode="normal"/>
			</filter>
		</defs>
		<mask maskUnits="userSpaceOnUse" x="-235.4" y="-80.5" width="172.3" height="172.3" id="SVGID_2_">
			<g filter="url(#Adobe_OpacityMaskFilter_1_)">
			</g>
		</mask>
		<linearGradient id="SVGID_3_" gradientUnits="userSpaceOnUse" x1="-149.2039" y1="-80.5409" x2="-149.2039" y2="92.5916">
			<stop  offset="0" style="stop-color:#000000"/>
			<stop  offset="1" style="stop-color:#FFFFFF"/>
		</linearGradient>
		<path mask="url(#SVGID_2_)" fill="url(#SVGID_3_)" d="M-149.2-80.5L-149.2-80.5c-47.6,0-86.2,38.6-86.2,86.2
			c0,25.7,11.3,48.8,29.2,64.6c15.2,13.4,35.1,21.5,57,21.5l0,0c21.8,0,41.8-8.1,57-21.5C-74.3,54.5-63,31.4-63,5.6
			C-63-42-101.6-80.5-149.2-80.5z"/>
	</g>
</mask>
<linearGradient id="SVGID_4_" gradientUnits="userSpaceOnUse" x1="-149.2039" y1="-80.5409" x2="-149.2039" y2="92.5916">
	<stop  offset="0" style="stop-color:#33AA22"/>
	<stop  offset="1" style="stop-color:#33AA22"/>
</linearGradient>
<path fill="url(#SVGID_4_)" d="M-149.2-80.5L-149.2-80.5c-47.6,0-86.2,38.6-86.2,86.2c0,25.7,11.3,48.8,29.2,64.6
	c15.2,13.4,35.1,21.5,57,21.5l0,0c21.8,0,41.8-8.1,57-21.5C-74.3,54.5-63,31.4-63,5.6C-63-42-101.6-80.5-149.2-80.5z"/>
<polygon fill="#FFFFFF" points="-107.1,-34.9 -167.3,25.3 -191.3,1.2 -206.2,16.1 -167.3,54.9 -92.3,-20.1 "/>
<polygon fill="#FFFFFF" points="168.5,83.1 123,128.5 104.8,110.4 93.6,121.6 123,150.9 179.7,94.3 "/>
<path opacity="0.2" fill="#681515" d="M-149.2,155.7L-149.2,155.7L-149.2,155.7c-47.6,0-86.2,38.6-86.2,86.2
	c0,25.7,11.3,48.8,29.2,64.6c15.2,13.4,35.1,21.5,57,21.5l0,0h0c21.8,0,41.8-8.1,57-21.5c17.9-15.8,29.2-38.9,29.2-64.6
	C-63,194.2-101.6,155.7-149.2,155.7z"/>
<g>
	<g>
		<path fill="#BA1E1E" d="M-149.2,152.5v74.8L-115,193l15,15v68.4v32.8c22.3-15.6,36.9-41.4,36.9-70.7
			C-63,191.1-101.6,152.5-149.2,152.5z"/>
		<path fill="#D82B2B" d="M-198.4,208.1l15-15l34.2,34.2l0,0v-74.8l0,0c-47.6,0-86.2,38.6-86.2,86.2c0,29.3,14.6,55.1,36.9,70.7
			v-32.8V208.1z"/>
		<path fill="#BA1E1E" d="M-149.2,227.3l-34.2-34.2l-15,15v68.4v32.8c14,9.7,30.9,15.5,49.2,15.5l0,0V227.3L-149.2,227.3z"/>
		<path fill="#9E1818" d="M-100,208.1l-15-15l-34.2,34.2v97.6c18.3,0,35.3-5.7,49.2-15.5v-32.8V208.1z"/>
	</g>
	<defs>
		<filter id="Adobe_OpacityMaskFilter_2_" filterUnits="userSpaceOnUse" x="-235.4" y="152.5" width="172.3" height="172.3">
			<feFlood  style="flood-color:white;flood-opacity:1" result="back"/>
			<feBlend  in="SourceGraphic" in2="back" mode="normal"/>
		</filter>
	</defs>
	<mask maskUnits="userSpaceOnUse" x="-235.4" y="152.5" width="172.3" height="172.3" id="SVGID_5_">
		<g filter="url(#Adobe_OpacityMaskFilter_2_)">
			<defs>
				<filter id="Adobe_OpacityMaskFilter_3_" filterUnits="userSpaceOnUse" x="-235.4" y="152.5" width="172.3" height="172.3">
					<feFlood  style="flood-color:white;flood-opacity:1" result="back"/>
					<feBlend  in="SourceGraphic" in2="back" mode="normal"/>
				</filter>
			</defs>
			<mask maskUnits="userSpaceOnUse" x="-235.4" y="152.5" width="172.3" height="172.3" id="SVGID_5_">
				<g filter="url(#Adobe_OpacityMaskFilter_3_)">
				</g>
			</mask>
			<linearGradient id="SVGID_6_" gradientUnits="userSpaceOnUse" x1="-149.2034" y1="152.4933" x2="-149.2034" y2="325.2474">
				<stop  offset="0" style="stop-color:#000000"/>
				<stop  offset="1" style="stop-color:#FFFFFF"/>
			</linearGradient>
			<path mask="url(#SVGID_5_)" fill="url(#SVGID_6_)" d="M-149.2,152.5L-149.2,152.5c-47.6,0-86.2,38.6-86.2,86.2
				c0,29.3,14.6,55.1,36.9,70.7c14,9.7,30.9,15.5,49.2,15.5l0,0c18.3,0,35.3-5.7,49.2-15.5c22.3-15.6,36.9-41.4,36.9-70.7
				C-63,191.1-101.6,152.5-149.2,152.5z"/>
		</g>
	</mask>
	<linearGradient id="SVGID_7_" gradientUnits="userSpaceOnUse" x1="-149.2034" y1="152.4933" x2="-149.2034" y2="325.2474">
		<stop  offset="0" style="stop-color:#D82B2B"/>
		<stop  offset="1" style="stop-color:#D82B2B"/>
	</linearGradient>
	<path fill="url(#SVGID_7_)" d="M-149.2,152.5L-149.2,152.5c-47.6,0-86.2,38.6-86.2,86.2c0,29.3,14.6,55.1,36.9,70.7
		c14,9.7,30.9,15.5,49.2,15.5l0,0c18.3,0,35.3-5.7,49.2-15.5c22.3-15.6,36.9-41.4,36.9-70.7C-63,191.1-101.6,152.5-149.2,152.5z"/>
	<polygon fill="#FFFFFF" points="-100,208.1 -115,193 -149.2,227.3 -183.4,193 -198.4,208.1 -164.2,242.3 -198.4,276.5 
		-183.4,291.5 -149.2,257.3 -115,291.5 -100,276.5 -134.2,242.3 	"/>
</g>
</svg>
